<?xml version='1.0' encoding='utf-8'?>
<svg xmlns="http://www.w3.org/2000/svg" version="1.2" viewBox="0 0 400 400" width="512" height="512">
	
	<path d="m107.95 7.63q3.89-0.01 7.78-0.01 9.42-0.01 18.83 0.01 10.99 0.01 21.98 0.01 19.61-0.01 39.23 0.02 18.99 0.03 37.98 0.02 20.74-0.01 41.48 0.01 2.21 0 4.43 0 1.08 0 2.2 0.01 7.64 0 15.28 0 10.3-0.01 20.6 0.02 3.77 0.01 7.54 0 5.16 0 10.32 0.02 1.47-0.01 2.99-0.01c14.86 0.09 28.29 3.11 39.41 13.52 9.58 10.47 12.31 21.48 12.27 35.27q0 1.7 0.01 3.46 0.02 5.73 0.01 11.45 0.01 4.12 0.02 8.23 0.02 10.01 0.02 20.01 0.01 8.15 0.02 16.29 0.02 23.12 0.02 46.25 0 1.24 0 2.52 0 1.24 0 2.52 0 20.18 0.05 40.36 0.04 20.76 0.04 41.52-0.01 11.64 0.02 23.28 0.03 9.91 0.01 19.83-0.01 5.05 0.01 10.1c0.12 26.44-3.31 49.26-22.05 69.31-18.97 18.21-39.75 19.95-64.75 19.87q-4.15 0-8.29 0.02-10.04 0.02-20.09 0-8.17-0.01-16.34 0c-1.16 0-1.16 0-2.35 0q-2.37 0-4.74 0-22.17 0.01-44.35-0.02-19-0.03-38 0-22.1 0.04-44.21 0.02-2.36 0-4.72 0-1.15-0.01-2.34-0.01-8.16 0-16.31 0.02-9.94 0.01-19.88-0.02-5.07-0.01-10.14 0-5.5 0.01-11.01-0.02c-1.58 0.01-1.58 0.01-3.19 0.02-12.5-0.13-24.2-5.21-33.43-13.66-10.01-10.72-13.78-23.23-13.7-37.56q-0.01-1.7-0.01-3.45-0.02-5.68 0-11.37-0.01-4.09-0.02-8.18-0.03-9.93-0.02-19.87 0.01-8.08 0-16.16 0-1.15 0-2.33 0-2.35-0.01-4.69-0.01-21.94 0.01-43.89 0.01-20.04-0.03-40.08-0.04-20.61-0.03-41.23 0.01-11.55-0.01-23.11-0.03-9.84 0-19.68 0.01-5.02-0.01-10.03c-0.08-23.57 2.66-42.68 18.52-61.24q1.14-1.51 2.31-3.06c20.48-22.39 48.27-24.41 76.64-24.31z" fill="#0664c6" />
	<path d="m237 77q1.05 0.35 2.13 0.71c15.13 5.22 28.95 13.51 39.87 25.29q1.04 1.05 2.11 2.13 1.12 1.17 2.27 2.37 1.05 1.09 2.14 2.22c1.48 2.28 1.48 2.28 1.47 4.5-1.47 4.14-4.27 6.53-7.4 9.54q-0.95 0.94-1.94 1.92-3.06 3.01-6.15 6.01-3.08 3.02-6.15 6.04-1.92 1.88-3.84 3.75c-3.15 2.96-3.15 2.96-5.51 6.52-3.62-0.56-4.9-1.71-7.12-4.56-9.48-11.23-24.08-20.52-38.88-22.44-12.23-0.89-23.58-0.82-35 4q-1.18 0.45-2.39 0.91c-20.03 8.1-34.09 23.75-42.77 43.1-8.69 20.55-8.28 45.97-0.21 66.74 5.69 13.21 13.77 25.43 25.56 33.88q0.98 0.7 1.99 1.43c5.33 3.76 10.67 6.72 16.82 8.94 1.5 0.55 1.5 0.55 3.04 1.11 9.26 3.11 18.88 4.91 28.67 4.88 6.93 0.02 10.69 0.59 15.73 5.57q2.33 2.68 4.56 5.44 1.81 2.07 3.63 4.13c0.81 0.95 0.81 0.95 1.65 1.93 3.08 3.47 6.41 6.69 9.72 9.94q6 6 12 12c-10.2 10.2-35.58 9.22-48.94 9.25-24.06-0.01-43.84-4.82-65.06-16.25-1.37-0.72-1.37-0.72-2.77-1.46-7.51-4.2-13.88-9.79-20.23-15.54q-0.81-0.73-1.65-1.48c-14.29-12.95-23.97-28.82-31.35-46.52q-0.72-1.68-1.46-3.4c-9.69-24.63-10.86-54.03-4.54-79.6q0.42-1.87 0.84-3.79c4.73-19.69 14.47-36.61 27.16-52.21q1.01-1.27 2.04-2.59c15.22-18.18 38.14-30.79 60.96-36.41q1.68-0.47 3.42-0.96c20.84-4.97 45.37-3.87 65.58 2.96z" fill="#fdfefe" />
	<path d="m339.31 153.06c3.52 2.54 6.06 5.51 8.69 8.94q0.81 0.95 1.64 1.93c2.48 3.78 2.04 7.73 1.36 12.07-1.9 5.08-4.47 9.86-8 14q-0.99 0-2 0c-0.39 0.86-0.39 0.86-0.79 1.75-1.31 2.43-2.81 4.26-4.65 6.31-0.89 1.01-0.89 1.01-1.81 2.04-0.86 0.94-0.86 0.94-1.75 1.9-0.79 0.86-0.79 0.86-1.6 1.75-1.4 1.25-1.4 1.25-3.4 1.25q-0.39 0.88-0.79 1.79c-1.27 2.33-2.61 3.81-4.52 5.65q-0.86 0.83-1.74 1.68-0.96 0.93-1.95 1.88-4.05 4.03-8.04 8.11-1.58 1.6-3.15 3.2-0.79 0.82-1.61 1.67-2.06 2.06-4.2 4.02-0.99 0-2 0c-0.4 0.9-0.4 0.9-0.81 1.81-1.19 2.19-2.45 3.45-4.19 5.19-0.44 0.94-0.44 0.94-0.88 1.9-1.25 2.35-2.5 3.49-4.56 5.16-5.51 4.66-10.5 9.81-15.56 14.94-3.52 3.57-7.15 6.79-11 10q-1.29 1.29-2.63 2.62c-5.24 5.25-5.24 5.25-9.87 5.78q-1.94-0.01-3.94-0.03-1.93 0.02-3.93 0.03c-5.57-0.61-8.21-2.92-12.04-6.8q-2.86-2.87-5.77-5.71-6.54-6.45-13.07-12.92-2.81-2.78-5.63-5.55-4.09-4.02-8.16-8.06-1.25-1.23-2.54-2.48c-5.21-5.21-9.54-10.1-10.92-17.57 0.15-5.73 1.17-10.06 3.5-15.31q0.99 0 2 0 0.49-1.48 1-3c1.56-1.13 1.56-1.13 3.44-2.13q0.92-0.49 1.87-1c4.34-2.23 7.82-2.43 12.69-1.87 8.14 2.71 13.6 8.46 19 14.81 3 3.29 6.32 6.18 9.67 9.11 2.2 1.96 4.34 3.9 6.33 6.08q0 0.99 0 2c5.25-2.64 8.95-6.72 13-10.88q1.04-1.05 2.12-2.14 2.03-2.06 4.06-4.13 4.35-4.42 8.77-8.76 0.86-0.85 1.74-1.71 0.87-0.86 1.76-1.73c1.75-1.77 1.75-1.77 3.55-4.65q0.99 0 2 0 0.34-0.92 0.69-1.87c1.31-2.13 1.31-2.13 3.87-3.13q1.2-0.49 2.44-1c0.89-2.04 0.89-2.04 1-4q0.92-0.12 1.87-0.25c2.24-0.53 2.24-0.53 3.07-2.37q0.52-1.17 1.06-2.38c3.2-4.99 6.57-8.53 11.11-12.32 2.06-1.83 3.64-3.9 5.34-6.06 8.18-8.52 17.19-13.3 28.86-9.56z" fill="#00b87c" />
	<path d="m80 9c0.5 0.99 0.5 0.99 1 2q-1.52 0.24-3.08 0.48c-18.91 3.13-36.67 11.24-48.92 26.52-1.52 2.58-2.8 5.12-3.96 7.87-1.09 2.23-2.29 3.41-4.04 5.13-8.83 16.19-8.57 34.84-8.47 52.68q0 3.83-0.01 7.66 0 9.26 0.03 18.52 0.04 10.81 0.03 21.62 0.01 19.3 0.06 38.6 0.05 18.68 0.06 37.36 0.01 1.15 0.01 2.33 0 4.63 0 9.26 0.02 18.95 0.05 37.9 0 4.31 0.01 8.61 0.01 12.26 0.04 24.53 0.01 3.71 0.02 7.41c-1.02 30.28-1.02 30.28 12.17 56.52 0.73 0.9 0.73 0.9 1.48 1.82 5.04 5.74 11.52 8.41 18.52 11.18q1.25 0.52 2.53 1.06c4.76 1.29 9.26 1.22 14.18 1.19 1.61 0.01 1.61 0.01 3.27 0.01q5.42 0.01 10.85 0 3.89 0 7.78 0.01 9.48 0.01 18.95 0 7.72-0.01 15.43 0 1.09 0 2.22 0 2.23 0 4.46 0 20.94 0.01 41.88-0.01 17.93-0.01 35.85 0 20.84 0.02 41.68 0.01 2.23 0 4.46 0c1.1 0 1.1 0 2.22 0q7.68-0.01 15.36 0 10.38 0.01 20.76-0.01 3.8 0 7.59 0.01c24.61 0.47 24.61 0.47 48.41-4.96q1.04-0.38 2.11-0.78c9.55-3.7 18.26-8.9 24.01-17.53q0.99 0 2 0 0.41-0.85 0.82-1.73c1.21-2.32 2.57-4.45 3.99-6.65 5.31-8.77 8.29-18.59 10.19-28.62 2 3 2 3 1.76 6.27-3.81 18.74-14.31 34.17-30.02 44.98-17.37 11.06-34.02 11.33-54.04 11.27q-4.15 0-8.29 0.02-10.04 0.02-20.09 0-8.17-0.01-16.34 0c-1.16 0-1.16 0-2.35 0q-2.37 0-4.74 0-22.17 0.01-44.35-0.02-19-0.03-38 0-22.1 0.04-44.21 0.02-2.36 0-4.72 0-1.15-0.01-2.34-0.01-8.16 0-16.31 0.02-9.94 0.01-19.88-0.02-5.07-0.01-10.14 0-5.5 0.01-11.01-0.02c-1.58 0.01-1.58 0.01-3.19 0.02-12.5-0.13-24.2-5.21-33.43-13.65-10.01-10.73-13.78-23.24-13.7-37.57q-0.01-1.7-0.01-3.45-0.02-5.68 0-11.37-0.01-4.09-0.02-8.18-0.03-9.93-0.02-19.87 0.01-8.08 0-16.16 0-1.15 0-2.33 0-2.35-0.01-4.69-0.01-21.94 0.01-43.89 0.01-20.04-0.03-40.08-0.04-20.61-0.03-41.23 0.01-11.55-0.01-23.11-0.03-9.84 0-19.68 0.01-5.02-0.01-10.03c-0.08-23.57 2.66-42.68 18.52-61.24q1.14-1.51 2.31-3.06c11.43-12.5 31.1-24.07 48.69-22.94z" fill="#033577" />
	<path d="m357 10c12.45 3.55 21.87 10.1 28.38 21.5 4.42 8.22 4.91 15.96 4.87 25.1q0 1.71 0 3.48 0.01 5.77-0.01 11.54 0 4.15 0.01 8.29 0 10.07-0.01 20.15-0.01 11.73-0.01 23.46 0 20.93-0.02 41.87-0.03 20.31-0.02 40.62c0 1.25 0 1.25 0 2.52 0 1.25 0 1.25 0 2.53q0 23.13-0.02 46.26 0 8.18 0 16.36 0 9.96-0.02 19.92-0.01 5.09 0 10.17 0 5.51-0.02 11.01 0.01 1.61 0.01 3.26c-0.01 1.47-0.01 1.47-0.01 2.98q0 1.26 0 2.57c-0.14 2.55-0.57 4.92-1.13 7.41q-0.49 0-1 0 0-0.9 0-1.82-0.09-53.49-0.23-106.97-0.02-6.43-0.03-12.85-0.01-1.28-0.01-2.59-0.05-20.7-0.08-41.39-0.03-21.25-0.1-42.5-0.04-13.1-0.05-26.21-0.01-8.99-0.05-17.98-0.02-5.18-0.02-10.37 0-5.63-0.03-11.26 0.01-1.62 0.01-3.28c-0.07-8.4-1.28-16.55-6.28-23.53q-0.71-1.01-1.43-2.05-0.84-1.08-1.7-2.2-1.07-1.47-2.18-2.99c-3.08-3.67-6.85-5.42-11.13-7.38q-1.11-0.53-2.25-1.08-2.71-1.29-5.44-2.55 0-0.98 0-2z" fill="#0d488d" />
	<path d="m86.38 7.88q1.39-0.01 2.81-0.01 1.53 0.01 3.11 0.01 1.62 0 3.29 0 5.48 0 10.96 0.01 3.92 0 7.84 0 8.45 0 16.9 0 12.22 0.02 24.44 0.02 19.82 0 39.64 0.01 19.26 0.02 38.52 0.03 1.18 0 2.4 0 5.95 0 11.9 0 49.41 0.02 98.81 0.05 0 0.49 0 1-20.94 0.55-41.88 1c-1.64 0.04-1.64 0.04-3.32 0.07-48.76 1.04-97.52 1.1-146.3 1.06q-1.38-0.01-2.8-0.01-35.85-0.03-71.7-0.12-0.49-0.98-1-2c2.36-1.18 3.75-1.12 6.38-1.12z" fill="#094eb0" />
	<path d="m386 329c2 3 2 3 1.76 6.27-3.81 18.74-14.31 34.17-30.02 44.98-17.41 11.09-34.06 11.32-54.12 11.2q-4.16 0-8.32 0.01-8.91 0-17.82-0.04-12.89-0.04-25.77-0.05-20.91-0.01-41.82-0.07-20.3-0.05-40.6-0.08c-1.26 0-1.26 0-2.54 0q-6.28-0.01-12.57-0.02-52.09-0.06-104.18-0.2 0-0.49 0-1 0.83 0 1.69 0 49.74-0.12 99.48-0.28 5.99-0.02 11.97-0.04 1.19 0 2.41 0 19.24-0.06 38.48-0.11 19.77-0.04 39.54-0.11 12.18-0.04 24.36-0.07 8.37-0.01 16.75-0.05 4.82-0.02 9.63-0.02c24.69 0.43 24.69 0.43 48.57-5.01q1.04-0.38 2.11-0.78c9.55-3.7 18.26-8.9 24.01-17.53q0.99 0 2 0 0.41-0.85 0.82-1.73c1.21-2.32 2.57-4.45 3.99-6.64 5.31-8.78 8.29-18.6 10.19-28.63z" fill="#225692" />
	<path d="m341 151c5.66 3.14 8.51 8.16 11 14 0.62 3.69 0.62 3.69 0.88 7.56q0.15 1.91 0.3 3.88c-0.19 3.81-0.81 5.6-3.18 8.56q-0.99 0-2 0 0 1.48 0 3-1.48 0-3 0-0.34 1.42-0.69 2.88c-1.31 3.12-1.31 3.12-3.94 4.5q-1.16 0.3-2.37 0.62c1.3-2.86 2.72-4.92 4.88-7.19 5.13-5.91 8.02-12.38 7.71-20.31-1.46-6.19-6.43-11.05-11.59-14.5-5.44-1.81-11.34-2.31-16.58 0.27q-2.27 1.54-4.45 3.22c-1.97 1.51-1.97 1.51-4.1 2.46-2.37 1.33-2.73 2.63-3.87 5.05-1.66 1.6-1.66 1.6-3.5 3.06-2.44 1.95-3.72 3.27-5.5 5.94q-0.99 0-2 0-0.34 1.05-0.69 2.12c-1.88 4.12-4.21 8.09-8.62 9.75q-0.83 0.07-1.69 0.13-0.06 0.86-0.13 1.75c-1.09 2.81-2.63 3.47-5.13 4.99-2.77 2-4.75 4.62-6.93 7.22-2.68 3.02-5.68 5.49-8.81 8.04-0.5-1.49-0.5-1.49-1-3 0.87-0.64 0.87-0.64 1.76-1.29 8.81-6.5 8.81-6.5 14.24-15.71q2.49-1.52 5-3c3.48-3.22 6.52-6.75 9.58-10.35 1.72-2 3.45-3.89 5.42-5.65q0.99 0 2 0 0-0.99 0-2 0.99 0 2 0 0.49-1.48 1-3 0.99 0 2 0 0.39-0.89 0.79-1.81c1.28-2.32 2.5-3.57 4.52-5.25 0.86-0.73 0.86-0.73 1.74-1.48q0.96-0.72 1.95-1.46 1.07-0.81 2.18-1.64c6.12-2.95 14.22-2.65 20.82-1.36z" fill="#0072a0" />
	<path d="m127 227q0.98 0 2 0 0.26 1.12 0.52 2.28c1.88 7.11 4.45 12.9 8.36 19.09q0.61 0.98 1.24 1.98c4.59 7.06 9.56 12.92 16.5 17.71q0.92 0.64 1.86 1.29c12.29 8.39 26.5 14.65 41.7 13.69 1.82-0.04 1.82-0.04 3.82 0.96q2.81 0.08 5.62 0.13c6.87 0.54 9.89 2.84 14.38 7.87q1.1 1.22 2.24 2.48 2.3 2.56 4.57 5.15c1.98 2.15 4 4.01 6.25 5.87 1.46 1.24 1.46 1.24 2.94 2.5q0 0.99 0 2 0.84 0.34 1.71 0.69c2.93 1.68 4.75 3.78 6.98 6.31q1.17 1.32 2.38 2.69c1.93 2.31 1.93 2.31 2.93 4.31-4.14-1.59-7.23-4.6-10-8q0-0.99 0-2-0.79-0.3-1.61-0.62c-3.43-1.98-5.94-4.68-8.7-7.5q-0.86-0.88-1.75-1.77c-3.66-3.73-7.21-7.53-10.57-11.52q-0.68-0.79-1.37-1.59c-0.64-0.77-0.64-0.77-1.3-1.56-2.17-1.84-3.46-1.89-6.28-2.06q-1.35-0.1-2.74-0.2-1.44-0.09-2.93-0.18c-21.22-1.66-38.2-6.28-54.75-20q-0.96-0.7-1.94-1.41c-11.77-8.91-19.5-24.39-22.06-38.59z" fill="#184990" />
	<path d="m83 147c1.21 3.64 0.67 4.41-0.75 7.88-12.48 32.71-10.18 71.31 3.75 103.12q2.32 5 4.93 9.85c1.07 2.15 1.07 2.15 1.07 4.15q-0.98 0-2 0-2.27-4.62-4.5-9.25c-0.64-1.31-0.64-1.31-1.3-2.64q-0.61-1.26-1.23-2.56-0.56-1.16-1.14-2.35c-0.83-2.2-0.83-2.2-0.83-6.2q-0.98 0-2 0c-0.66-2.97-1.32-5.94-2-9q-0.98 0-2 0 0.06-1.6 0.13-3.25c0.15-3.54 0.15-3.54-1.1-5.56-4.21-8.95-2.15-23.22-2.21-32.95q-0.02-3.01-0.05-6.02c-0.01-19.93-0.01-19.93 5.23-28.22q1.12-3.25 2.06-6.56c1.06-3.68 2.09-7.08 3.94-10.44z" fill="#11479a" />
	<path d="m386 329c2 3 2 3 1.76 6.27-3.8 18.73-14.31 34.2-30.03 44.98-12.43 7.95-25.98 12.32-40.73 9.75q0-0.49 0-1 1.54-0.11 3.12-0.23c17.04-1.47 35.27-6.29 46.88-19.77q0.99-1.48 2-3 0.99 0 2 0 0.41-0.85 0.82-1.73c1.21-2.32 2.57-4.45 3.99-6.64 5.31-8.78 8.29-18.6 10.19-28.63z" fill="#083e81" />
	<path d="m80 9c0.5 0.99 0.5 0.99 1 2q-1.52 0.24-3.08 0.48c-18.91 3.13-36.67 11.24-48.92 26.52-1.52 2.58-2.8 5.12-3.96 7.87-1.09 2.23-2.29 3.41-4.04 5.13-5.89 10.8-8.23 24.86-9 37q-0.49 0-1 0c-1.03-20.12 4.87-37.63 18-53q1.14-1.51 2.31-3.06c11.43-12.5 31.1-24.07 48.69-22.94z" fill="#083579" />
	<path d="m141 149c1.61 3.22 0.84 5.59 0 9-2.42 1.92-3.88 3-7 3q-0.15 0.81-0.3 1.65c-0.82 4.17-1.82 7.84-3.7 11.66-5.1 11.06-4.11 23.09-3.63 34.94q0.09 2.45 0.18 4.89 0.21 5.93 0.45 11.86c-5.34-5.34-4.22-17.85-4.25-25.19 0.14-18.44 5.53-37.97 18.25-51.81z" fill="#2b5a9b" />
	<path d="m235 130c2.8 2.21 5.44 4.52 8 7-3.7 0-4.65-1.3-7.33-3.65-2.67-2.16-5.61-3.62-8.67-5.16-0.89-0.47-0.89-0.47-1.79-0.95-3.9-1.95-6.87-2.58-11.21-2.24q0-0.98 0-2-6.59-0.08-13.19-0.12-1.86-0.03-3.77-0.06-1.8-0.01-3.65-0.02-1.64-0.01-3.34-0.03c-3.12 0.24-5.22 0.96-8.05 2.23q-2.89 0.73-5.8 1.43c-3.8 0.99-7.49 2.28-11.2 3.57q0 0.99 0 2-6 3-12 6c20.25-22.21 57.66-24.24 82-8z" fill="#114894" />
	<path d="m213 200q1.97 0 4 0 0.49 0.99 1 2 1.23 0.68 2.5 1.38c2.93 1.9 2.78 2.42 3.5 5.62 1.82 1.2 1.82 1.2 4 2 3.24 1.43 3.93 1.89 6 5q1.69 2.05 3.44 4.06c0.89 1.04 0.89 1.04 1.81 2.1 1.81 2.04 1.81 2.04 4.75 3.84 2.97-0.13 3.98-0.98 6.15-3.04 1.1-1.28 1.1-1.28 2.22-2.58q1.17-1.34 2.37-2.72c1.12-1.32 1.12-1.32 2.26-2.66q0.94-1.09 1.92-2.22 2.05-2.38 4.08-4.78 1.48 0.49 3 1c-4.34 5.23-8.99 10.15-13.75 15q-0.85 0.88-1.72 1.78c-1.45 1.47-2.99 2.85-4.53 4.22-3 0-3 0-4.47-1.43q-0.79-0.99-1.59-2.01c-2.79-3.34-5.72-6.25-9-9.12-2.96-2.59-5.65-5.14-8.13-8.19-2.83-3.5-6.1-5.73-9.81-8.25q0-0.49 0-1z" fill="#00709f" />
	<path d="m295 9c20.13 0 40.26 0 61 0 0.5 1.48 0.5 1.48 1 3-20.79-0.33-41.58-0.66-63-1q0.49-0.98 1-2z" fill="#004fbe" />
	<path d="m74 217q0.49 0 1 0 0.13 0.85 0.26 1.72c2.69 17.54 7.25 33.45 15.67 49.13 1.07 2.15 1.07 2.15 1.07 4.15q-0.98 0-2 0-2.27-4.62-4.5-9.25c-0.64-1.31-0.64-1.31-1.3-2.64-0.61-1.27-0.61-1.27-1.23-2.56-0.57-1.17-0.57-1.17-1.14-2.35-0.83-2.2-0.83-2.2-0.83-6.2q-0.98 0-2 0c-0.66-2.97-1.32-5.94-2-9q-0.98 0-2 0 0.06-1.6 0.12-3.25c0.15-3.56 0.15-3.56-1.12-5.7-1.16-2.38-1.24-3.97-1.19-6.61q0.01-1.14 0.02-2.32c0.17-2.12 0.17-2.12 1.17-5.12z" fill="#1d5199" />
	<path d="m357 377q0.99 0.49 2 1c-6.86 8.42-19.6 11.61-30 13-4.09 0.03-7.98-0.3-12-1q0-0.49 0-1c1.54-0.11 1.54-0.11 3.12-0.23 8.03-0.69 15.46-1.94 23.07-4.64q1.03-0.37 2.1-0.75c4.35-1.63 7.94-3.67 11.71-6.38z" fill="#0c4390" />
	<path d="m215 286c6.07 2.65 10.49 8.02 14.56 13.13 2.48 2.92 5.09 5.2 8.08 7.57q0.67 0.64 1.36 1.3 0 0.99 0 2 0.84 0.34 1.71 0.69c2.93 1.68 4.75 3.78 6.98 6.31q1.17 1.32 2.38 2.69c1.93 2.31 1.93 2.31 2.93 4.31-4.14-1.59-7.23-4.6-10-8q0-0.99 0-2-0.79-0.3-1.61-0.62c-3.43-1.98-5.94-4.68-8.7-7.5q-0.86-0.88-1.75-1.78c-5.66-5.76-10.97-11.74-15.94-18.1z" fill="#1d4686" />
	<path d="m357 10c14.05 4 23.01 11.77 30.16 24.48 0.84 2.52 0.84 2.52-0.01 4.85q-0.57 0.82-1.15 1.67-0.28-0.89-0.56-1.8c-3.96-11.31-10.28-18.69-21-23.89q-3.69-1.71-7.44-3.31 0-0.99 0-2z" fill="#083270" />
	<path d="m17 365c2.63 2.52 5.02 5.17 7.38 7.94 7.41 8.44 15.9 12.87 26.62 16.06q-0.99 0.99-2 2c-13.31-4.3-24.9-10.51-32-23q0-1.48 0-3z" fill="#083274" />
	<path d="m222 265c2.93 1.43 5.51 2.87 8 5q0 0.99 0 2 0.8 0.37 1.63 0.75c2.37 1.25 2.37 1.25 5 3.38 4.55 2.53 8.26 2.57 13.37 1.87 4.35-1.53 4.35-1.53 7-5q1.97 0.49 4 1c-3.5 3.76-6.53 5.8-11.7 6.5-7.98 0.12-12.76-0.23-18.74-5.75-2.95-3.17-5.78-6.43-8.56-9.75z" fill="#0aaa94" />
	<path d="m309 165c0 4.32-2.13 5.93-5 9q-0.99 0-2 0-0.12 1.11-0.25 2.25c-0.9 3.31-2.08 4.63-4.75 6.75q-1.48 0-3 0-0.4 0.89-0.81 1.81c-1.19 2.19-2.29 3.6-4.19 5.19q-0.99 0-2 0 0.49-1.97 1-4c0.93-0.12 0.93-0.12 1.88-0.25 2.23-0.53 2.23-0.53 3.06-2.38q0.52-1.16 1.06-2.37c3.22-5.02 6.66-8.7 11.23-12.52 1.86-1.51 1.86-1.51 3.77-3.48z" fill="#06ae8f" />
	<path d="m184 208q0.99 0 2 0-0.25 1.17-0.5 2.38c-1.5 10.88 0.19 16.91 6.81 25.68q0.83 0.96 1.69 1.94c-3.45-0.26-4.24-1.26-6.69-3.87-2.31-3.13-2.31-3.13-3.31-6.13q-1.48-0.99-3-2 0.17-3.38 0.38-6.75 0.1-1.87 0.21-3.8c0.36-3.06 0.81-4.87 2.41-7.45z" fill="#0069a8" />
	<path d="m186.56 70.94c1.27 0.01 1.27 0.01 2.57 0.02q0.92 0.02 1.87 0.04 0 0.49 0 1-1.68 0.25-3.41 0.52c-14.81 2.3-28.7 5.76-42.59 11.48q0-0.98 0-2c5.69-3.01 11.29-5.28 17.44-7.19q1.18-0.39 2.41-0.78c7.19-2.27 14.17-3.2 21.71-3.09z" fill="#164d93" />
	<path d="m258 86c12.55 4.43 22.27 14.56 30 25q-0.49 0.98-1 2-2.51-2.68-5-5.38-0.71-0.75-1.45-1.53c-3.55-3.86-3.55-3.86-3.55-6.09q-0.8-0.36-1.62-0.72c-3.05-1.64-5.68-3.64-8.44-5.72q-1.56-1.17-3.16-2.37c-2.09-1.65-3.97-3.24-5.78-5.19z" fill="#225194" />
	<path d="m80 9q0.49 0.98 1 2c-1.51 0.24-1.51 0.24-3.04 0.48-9.2 1.54-17.37 3.8-25.96 7.52q0-1.48 0-3c20.14-7.51 20.14-7.51 28-7z" fill="#0c3e8b" />
	<path d="m285 249c0 3.48-0.45 3.88-2.69 6.38-0.82 0.92-0.82 0.92-1.66 1.85-2.16 2.32-4.41 4.53-6.65 6.77q-1.05 1.35-2.13 2.75c-1.87 2.25-1.87 2.25-4.87 3.25q-0.49 0.99-1 2-1.97-0.49-4-1 1.93-1.76 3.88-3.5 1.07-0.97 2.17-1.97c1.95-1.53 1.95-1.53 3.95-1.53q0.32-0.81 0.65-1.64c1.83-3.2 4.35-5.57 6.98-8.11q0.76-0.76 1.56-1.54 1.9-1.86 3.81-3.71z" fill="#0069a1" />
	<path d="m187 206q0.99 0 2 0-0.22 1.06-0.44 2.16c-1.8 9.29-1.94 15.97 1.44 24.84-4.25-4.08-6.18-7.94-6.38-13.88 0.14-4.91 1.39-8.65 3.38-13.12z" fill="#0aac97" />
	<path d="m339.44 153.19c2.79 1.97 4.6 4.02 6.56 6.81-1.98-0.98-3.93-1.96-5.86-3.04-4.79-2.6-8.7-3.57-14.14-3.96q0 0.99 0 2c-1.64 0.65-1.64 0.65-3.31 1.31-2.78 1.18-4.75 2.3-6.69 4.69q-0.99-0.49-2-1 1.62-1.44 3.25-2.87c0.9-0.81 0.9-0.81 1.83-1.62 6.04-4.74 13.23-4.79 20.36-2.32z" fill="#0db198" />
	<path d="m203 284q3.09 0.33 6.19 0.56 1.62 0.13 3.29 0.26c1.25 0.09 1.25 0.09 2.52 0.18q0 0.99 0 2c-9.56 0.29-18.57-0.54-28-2q0-0.49 0-1 3.16-0.29 6.31-0.56 1.75-0.16 3.55-0.32c3.14-0.12 3.14-0.12 6.14 0.88z" fill="#2e5c9e" />
	<path d="m338 192q0.99 0.49 2 1-2.11 2.45-4.25 4.88-1.18 1.35-2.39 2.74c-2.36 2.38-2.36 2.38-4.53 3.45-2.4 1.22-2.71 2.54-3.83 4.93-1.73 1.7-1.73 1.7-3.62 3.25q-0.95 0.78-1.92 1.58-0.72 0.58-1.46 1.17 0.46-0.89 0.94-1.81c1.16-2.28 1.16-2.28 2.06-5.19q1.48-0.49 3-1 2.56-2.44 5-5 2.72-2.68 5.45-5.35c1.75-1.77 1.75-1.77 3.55-4.65z" fill="#09a695" />
	<path d="m301 232q0 1.48 0 3-1.5 1.5-3 3-0.22 0.95-0.44 1.94c-1.04 3.83-4.03 5.69-7.18 7.87q-1.17 0.59-2.38 1.19-0.99-0.49-2-1 1.39-1.08 2.81-2.19c2.8-2.33 4.42-4.6 6.19-7.81 3.6-4.8 3.6-4.8 6-6z" fill="#016ea9" />
	<path d="m216 260q6.27 5.32 12.44 10.75 1.29 1.13 2.62 2.3c1.94 1.95 1.94 1.95 1.94 3.95q1.48 0.49 3 1-0.99 0.49-2 1c-2.12-0.94-2.12-0.94-4-2q0-0.99 0-2-0.99 0-2 0c-1.55-1.57-1.55-1.57-3.31-3.69-2.13-2.51-4.25-4.92-6.63-7.19-2.06-2.12-2.06-2.12-2.06-4.12z" fill="#0073a4" />
	<path d="m213 201c6.86 3.05 10.77 8.02 15 14q-1.39-0.52-2.81-1.06c-3.17-1.26-3.17-1.26-6.19 0.06q0.49-2.95 1-6-0.75-0.5-1.53-1.02c-0.98-0.67-0.98-0.67-1.97-1.35q-0.97-0.66-1.97-1.34-0.75-0.64-1.53-1.29 0-0.99 0-2z" fill="#0ab096" />
	<path d="m141 149c1.63 3.26 0.9 5.56 0 9-3.06 1.94-3.06 1.94-6 3q-0.49-1.48-1-3c1.43-2.26 1.43-2.26 3.44-4.69q0.98-1.2 1.99-2.45 0.78-0.91 1.57-1.86z" fill="#1158af" />
	<path d="m261 272q0.49 1.97 1 4-1.45 0.95-2.94 1.94c-2.82 1.76-2.82 1.76-4.06 3.06q-2.02 0.12-4.04 0.1-1.2-0.01-2.45-0.01-1.27-0.01-2.57-0.03-1.28 0-2.59-0.01-3.18-0.02-6.35-0.05-0.49-0.99-1-2 1.71 0.09 3.47 0.18c9.47 0.72 9.47 0.72 18.03-2.56 2.49-2.35 2.49-2.35 3.5-4.62z" fill="#0071a6" />
	<path d="m369 366q1.48 0.49 3 1c-3.68 4.53-7.41 8.39-12 12q-0.99-0.49-2-1c3.51-4.18 7.08-8.2 11-12z" fill="#093e81" />
	<path d="m196 239c3.96 1.67 6.84 4.13 10 7q0 0.99 0 2 0.99 0 2 0c1.51 1.53 1.51 1.53 3.13 3.5q0.8 0.97 1.63 1.97 0.61 0.75 1.24 1.53-0.49 0.99-1 2-4.25-4.21-8.5-8.44-1.21-1.2-2.46-2.43-1.14-1.14-2.32-2.31-1.06-1.06-2.16-2.15c-1.56-1.67-1.56-1.67-1.56-2.67z" fill="#0bab9b" />
	<path d="m75 167c1.29 3.88 0.97 7.42 0.75 11.44q-0.04 1.14-0.08 2.31c-0.23 4.29-0.5 7.06-3.67 10.25-0.31-7.7-0.52-16.97 3-24z" fill="#0e51ad" />
	<path d="m125 199q0.49 0 1 0c0.33 8.91 0.66 17.82 1 27-2.9-2.9-2.78-6.08-3-10 0.03-3.01 0.21-6 0.44-9q0.08-1.16 0.16-2.35 0.19-2.82 0.4-5.65z" fill="#1155ac" />
	<path d="m134 159c1 2 1 2 0.07 4.86q-0.68 1.7-1.38 3.45-0.67 1.69-1.37 3.43-0.65 1.6-1.32 3.26-1 2.5-2 5-0.49 0-1 0c0.29-7.66 3.37-13.34 7-20z" fill="#194f94" />
	<path d="m223 125c4.18 0.58 7.02 1.98 10.56 4.25q1.39 0.87 2.82 1.77c2.73 2.06 4.6 4.22 6.62 6.98-2.32-1.03-4.11-2.1-6.06-3.75-4.33-3.32-9.12-5.72-13.94-8.25q0-0.49 0-1z" fill="#12458b" />
	<path d="m195 121q0 0.49 0 1c-1.21 0.2-1.21 0.2-2.45 0.4q-1.59 0.27-3.24 0.54-1.57 0.26-3.2 0.52-4.07 0.71-8.11 1.54-0.49-0.98-1-2c6.35-2.03 11.43-3.61 18-2z" fill="#255aa1" />
	<path d="m144 85q-3.09 1.69-6.19 3.38-1.71 0.93-3.48 1.89c-2.75 1.43-5.44 2.65-8.33 3.73q0.49-1.48 1-3-0.49-0.98-1-2 1.2 0.15 2.44 0.31c4.36-0.38 6.87-1.99 10.51-4.31 2.05-1 2.05-1 5.05 0z" fill="#1f569d" />
	<path d="m357 10c5.23 1.64 10.15 3.39 15 6q-0.49 1.48-1 3c-4.62-2.31-9.24-4.62-14-7q0-0.99 0-2z" fill="#063480" />
	<path d="m274 201c0 3 0 3-2 5.19q-0.99 0.89-2 1.81c0.56-3.27 1.5-4.83 4-7zm-6 7q0.99 0.49 2 1c-1.25 2.44-1.25 2.44-3 5q-1.97 0.49-4 1c1.65-2.31 3.3-4.62 5-7z" fill="#05b28a" />
	<path d="m243 138c3.44 1.45 5.36 3.28 7.75 6.13q0.92 1.08 1.86 2.19c0.69 0.83 0.69 0.83 1.39 1.68q-0.49 0.99-1 2c-2.44-1.19-2.44-1.19-5-3q-0.55-2.49-1-5c-1.97-1.36-1.97-1.36-4-2q0-0.99 0-2z" fill="#16559f" />
	<path d="m248 330c-2.04 2.75-3.08 3.01-6.56 3.63q-1.7 0.18-3.44 0.37c-0.99 0.5-0.99 0.5-2 1q-2.52-0.42-5-1c3.12-1.69 6.2-2.74 9.63-3.69q1.43-0.4 2.91-0.82c2.46-0.49 2.46-0.49 4.46 0.51z" fill="#0e5fbf" />
	<path d="m266.69 264.31c1.14 0.34 1.14 0.34 2.31 0.69-3.62 4.87-3.62 4.87-7 6-0.69-1.81-0.69-1.81-1-4 1.71-2.76 2.43-3.07 5.69-2.69z" fill="#05b38b" />
	<path d="m17 365c3.28 3.16 6.28 6.35 9 10q-0.49 1.48-1 3-1.44-1.65-2.88-3.31-0.79-0.92-1.61-1.87c-3.51-4.24-3.51-4.24-3.51-7.82z" fill="#052865" />
	<path d="m195 197q3.37-0.08 6.75-0.13 1.87-0.03 3.8-0.07c3.18 0.18 4.82 0.51 7.45 2.2-0.99 0.5-0.99 0.5-2 1q-1.48-0.49-3-1c-4.75-0.3-9.38-0.19-14 1q0.49-1.48 1-3z" fill="#0070a4" />
	<path d="m357 377q0.99 0.49 2 1c-2.98 3.33-5.86 5.29-10 7q-0.99-0.49-2-1c3.3-2.31 6.6-4.62 10-7z" fill="#094381" />
	<path d="m184 208q0.99 0 2 0-0.25 1.11-0.5 2.25c-0.7 5.25-0.58 10.46-0.5 15.75q-0.99-0.49-2-1-0.04-3.97-0.06-7.94-0.02-1.12-0.03-2.28 0-2.89 0.09-5.78 0.49-0.49 1-1z" fill="#0077a2" />
	<path d="m37 29c0 3 0 3-1 6q-0.51 2-1 4-1.97-1.97-4-4c1.98-1.98 3.96-3.96 6-6z" fill="#0a5dc0" />
	<path d="m299 235q-1.17 1.11-2.38 2.25c-2.63 2.49-2.63 2.49-3.75 5q-0.43 0.86-0.87 1.75-1.48 0.49-3 1 0-0.99 0-2 0.99-0.49 2-1 0.43-1.45 0.87-2.94c1.13-3.06 1.13-3.06 3.13-4.5 2-0.56 2-0.56 4 0.44z" fill="#07a691" />
	<path d="m212 121q2.16 0.43 4.31 0.88 1.2 0.24 2.43 0.49c2.26 0.63 2.26 0.63 5.26 2.63-3.3 0-6.6 0-10 0q0-0.98 0-2-0.99 0-2 0 0-0.98 0-2z" fill="#2158a0" />
	<path d="m386 329c2.57 3.85 1.83 5.59 1 10q-1.48 0.49-3 1c0.66-3.63 1.32-7.26 2-11z" fill="#0b418d" />
	<path d="m275 95q0.99 0.49 2 1 0 0.98 0 2 1.48 0 3 0 0.49-0.98 1-2c1 3 1 3 0 6q-1.48-0.49-3-1 0-0.98 0-2-1.97-0.98-4-2 0.49-0.98 1-2z" fill="#0a5ebd" />
	<path d="m16 57q0.98 0 2 0c-0.99 3.96-1.98 7.92-3 12q-0.49 0-1 0c-0.29-8.57-0.29-8.57 2-12z" fill="#0a408e" />
	<path d="m227 293q0.99 0.49 2 1 0.18 0.89 0.38 1.81c0.82 2.89 2.42 4.21 4.62 6.19-3 0-3 0-4.61-1.53q-0.77-0.97-1.58-1.97-0.79-0.97-1.6-1.97-0.6-0.75-1.21-1.53 0.99-0.99 2-2z" fill="#0f5bb6" />
	<path d="m78 239c2.95 2.95 3.09 5.96 4 10q-1.48 0-3 0-0.54-2.22-1.06-4.44-0.3-1.23-0.6-2.49c-0.17-1.03-0.17-1.03-0.34-2.07q0.49-0.49 1-1z" fill="#2859a3" />
	<path d="m347 9c2.97 0 5.94 0 9 0q0.49 1.48 1 3c-3.3-0.33-6.6-0.66-10-1q0-0.98 0-2z" fill="#0f4aa2" />
	<path d="m273 256q2.46 0 5 0c-2.97 3.96-2.97 3.96-6 8q-0.99-0.49-2-1c0.99-2.31 1.98-4.62 3-7z" fill="#08ac97" />
	<path d="m350 180q0.99 0.49 2 1-0.99 1.97-2 4-0.99 0-2 0 0 1.48 0 3-0.99-0.49-2-1 0.91-3.03 2-6 0.99-0.49 2-1z" fill="#036db0" />
	<path d="m365 372q0.99 0.49 2 1c-3.46 2.97-3.46 2.97-7 6q-0.99-0.49-2-1c4.75-4.88 4.75-4.88 7-6z" fill="#083364" />
	<path d="m110 297c1.48 0.99 1.48 0.99 3 2q0 0.99 0 2 1.97 0.99 4 2-1.48 0.49-3 1c-2.5-2.17-3.44-3.73-4-7z" fill="#0e5dbd" />
	<path d="m217 284q0 0.99 0 2c-6.93-0.5-6.93-0.5-14-1q0-0.49 0-1 2.94-0.29 5.88-0.56c1.63-0.16 1.63-0.16 3.3-0.32 2.82-0.12 2.82-0.12 4.82 0.88z" fill="#0e5dbe" />
	<path d="m280 249q0.49 0.99 1 2 0.99 0.49 2 1c-1.65 1.32-3.3 2.64-5 4 0.88-5.88 0.88-5.88 2-7z" fill="#07b08f" />
	<path d="m313 158q1.48 0.49 3 1-0.92 0.37-1.88 0.75c-2.47 1.46-3.07 2.63-4.12 5.25q-0.49-1.48-1-3 1.97-1.97 4-4z" fill="#006f8a" opacity=".5" />
</svg>